<?xml version="1.0" encoding="UTF-8"?><svg id="Layer_2" xmlns="http://www.w3.org/2000/svg" width="352.8057" height="246" viewBox="0 0 352.8057 246"><defs><style>.cls-1{fill:#00263e;}.cls-1,.cls-2{stroke-width:0px;}.cls-2{fill:#cb333b;}</style></defs><g id="Layer_1-2"><polygon class="cls-1" points="62.5736 .0005 62.5736 97.6102 62.1228 97.6102 27.3126 .0005 .9207 .0005 .9207 170.6411 26.6364 170.6411 26.6364 63.8927 27.0823 63.8927 63.4752 170.6411 88.2893 170.6411 88.2893 .0005 62.5736 .0005"/><polygon class="cls-1" points="237.1289 .0005 221.2967 54.0582 220.8459 54.0582 203.3281 .0005 175.2506 .0005 205.5772 81.2586 173.0064 170.6411 201.0789 170.6411 220.8459 108.3512 221.2967 108.3512 240.6128 170.6411 268.6854 170.6411 236.4576 81.2586 265.2064 .0005 237.1289 .0005"/><polygon class="cls-1" points="269.1416 .0005 269.1416 25.4908 296.6507 25.4908 296.6507 170.6411 325.1741 170.6411 325.1741 25.4908 352.8057 25.4908 352.8057 .0005 269.1416 .0005"/><rect class="cls-1" x="96.5699" width="71.311" height="25.1913"/><rect class="cls-1" x="96.5748" y="72.7271" width="71.311" height="25.1913"/><rect class="cls-1" x="96.5748" y="145.4492" width="71.311" height="25.1913"/><path class="cls-2" d="M62.2233,193.0913l8.9476,26.4556h-18.0519l9.1044-26.4556ZM58.0533,179.376l-25.304,64.9849h11.5887l5.2529-14.9159h25.2256l5.4146,14.9159h11.8337l-25.0688-64.9849h-8.9427Z"/><path class="cls-2" d="M140.1939,179.3779v41.0578c0,5.0863-1.0192,9.5797-3.0479,13.4703-2.0335,3.8907-4.8217,6.8797-8.3644,8.9672-3.5428,2.0825-7.5461,3.1263-12.0101,3.1263-4.4395,0-8.4281-1.0437-11.9709-3.1263-3.5428-2.0874-6.3309-5.0765-8.3595-8.9672-2.0335-3.8907-3.0479-8.384-3.0479-13.4703v-41.0578h10.3441v40.7001c0,3.876,1.0486,7.3305,3.1508,10.3637,2.0972,3.0332,5.3901,4.5522,9.8835,4.5522,3.0773,0,5.5959-.7497,7.5608-2.2442,1.9649-1.4945,3.3762-3.386,4.2288-5.6792.8575-2.2932,1.2838-4.6257,1.2838-6.9924v-40.7001h10.349Z"/><polygon class="cls-2" points="145.3684 179.376 145.3684 189.8524 163.2145 189.8524 163.2145 244.3609 173.5635 244.3609 173.5635 189.8524 191.3704 189.8524 191.3704 179.376 145.3684 179.376"/><rect class="cls-2" x="196.5856" y="179.3725" width="10.3441" height="64.9849"/><path class="cls-2" d="M255.7007,184.3765l-7.5804,8.9378c-1.0437-1.6562-2.4745-2.9204-4.2925-3.7927-1.8179-.8722-3.7829-1.3132-5.8948-1.3132-2.646,0-4.8903.6958-6.7376,2.0874-1.8424,1.3916-2.7685,3.4889-2.7685,6.2966s.8967,4.7286,2.6901,5.7674c1.7885,1.0339,5.1549,2.4892,10.0844,4.366,4.9344,1.8816,8.6389,4.1406,11.1085,6.7866,2.4745,2.646,3.7094,6.571,3.7094,11.7749,0,3.3713-.5537,6.375-1.6611,9.0015-1.1123,2.6362-2.6362,4.8021-4.5718,6.5024-1.9404,1.6954-4.2141,2.9891-6.8209,3.8809-2.6068.882-5.3411,1.3279-8.1978,1.3279-2.5137,0-4.9148-.294-7.2031-.8869-2.2834-.5929-4.4444-1.5386-6.473-2.8421-2.0335-1.3034-3.8368-3.0038-5.4146-5.1059l7.8205-8.433c1.2544,2.1315,2.9107,3.7976,4.9736,4.9932,2.058,1.2005,4.2337,1.7983,6.5367,1.7983,1.7101,0,3.3419-.3381,4.8903-1.0192,1.5533-.6811,2.8225-1.6954,3.8123-3.043.9898-1.3426,1.4847-2.9499,1.4847-4.8119,0-3.1116-.9996-5.2774-2.9891-6.5024-1.9943-1.2299-5.3754-2.7538-10.1481-4.5718-4.7727-1.8228-8.3742-4.0034-10.8096-6.5465-2.4304-2.548-3.6457-6.4387-3.6457-11.6769,0-3.2537.588-6.1251,1.764-8.6095,1.176-2.4843,2.793-4.5473,4.8511-6.1888,2.058-1.6464,4.3513-2.8568,6.8797-3.6408,2.5235-.784,5.1647-1.176,7.9185-1.176,6.8699,0,12.4315,2.2148,16.6848,6.6396"/><polygon class="cls-2" points="309.0837 179.376 293.4034 224.9174 277.88 179.376 262.1213 179.376 262.1213 244.3609 271.9851 244.3609 271.9851 190.3375 272.1469 190.3375 289.7921 244.3609 297.0148 244.3609 314.6992 190.3375 314.8609 190.3375 314.8609 244.3609 324.7248 244.3609 324.7248 179.376 309.0837 179.376"/><polygon class="cls-1" points=".6341 229.9066 .6341 244.945 25.7715 244.945 25.7715 240.7995 15.3343 240.7995 15.3343 230.5339 11.282 230.5339 11.282 240.7995 4.6864 240.7995 4.6864 229.9066 .6341 229.9066"/><path class="cls-1" d="M13.0195,222.9618c1.3083,0,2.5235-.1862,3.6555-.5586,1.1319-.3773,2.1315-.9261,2.994-1.6464.8624-.7252,1.5288-1.5827,1.9894-2.5725.4655-.9898.6958-2.0629.6958-3.2194,0-1.1809-.2303-2.2687-.6958-3.2733-.4606-.9996-1.1172-1.8571-1.96-2.5627-.8477-.7056-1.8326-1.2495-2.9597-1.6317-1.127-.3773-2.3667-.5684-3.7192-.5684-1.2544,0-2.4304.1911-3.5232.5782s-2.0433.931-2.8567,1.6317c-.8085.7007-1.4455,1.5435-1.9012,2.5284-.4606.9849-.686,2.0874-.686,3.2978,0,1.1858.2254,2.2687.686,3.2439.4557.9751,1.0976,1.8228,1.9208,2.5382.8232.7203,1.7885,1.2691,2.8911,1.6464,1.1025.3822,2.2589.5684,3.4693.5684M13.289,227.3032c-1.9894,0-3.8074-.2989-5.444-.9016-1.6366-.5978-3.0381-1.4455-4.2043-2.5382-1.1711-1.0927-2.0678-2.3961-2.695-3.9201-.6321-1.519-.9457-3.1704-.9457-4.9491,0-1.8424.3087-3.5281.9261-5.0618.6174-1.5288,1.5092-2.842,2.6705-3.9348,1.1613-1.0927,2.548-1.9355,4.1553-2.5235s3.4056-.882,5.3999-.882c1.9208,0,3.6947.2989,5.3117.8967,1.6219.6027,3.0234,1.4602,4.2092,2.5823,1.1858,1.1172,2.0923,2.4353,2.7293,3.9593.6321,1.519.9702,3.1753,1.0045,4.9638,0,1.7787-.3136,3.4252-.9457,4.9393-.6272,1.519-1.5239,2.8274-2.6852,3.925-1.1613,1.0976-2.5529,1.9453-4.1749,2.5431-1.617.6027-3.3909.9016-5.3117.9016"/><path class="cls-1" d="M11.2815,194.4918v-3.2292c0-1.0094-.0735-1.862-.2156-2.5627-.1421-.7007-.4704-1.2936-.9849-1.7738-.5194-.4851-1.2789-.7252-2.2883-.7252-.9261,0-1.6366.2254-2.1266.6811-.4949.4557-.8183,1.0241-.9702,1.6954-.1568.6762-.2303,1.4553-.2303,2.3324v3.582h6.816ZM25.771,198.6372H.6336v-8.0998c0-1.617.2205-3.0675.6517-4.3611.4361-1.2887,1.1907-2.3324,2.2687-3.1263,1.078-.7938,2.5039-1.1858,4.2925-1.1858,1.8179,0,3.3419.4704,4.5669,1.4112,1.225.9457,1.9747,2.2736,2.2491,3.9838l11.1085-6.1839v4.9981l-10.6626,5.395v3.0234h10.6626v4.1455Z"/></g></svg>